PathFileType	4	(X/Y/Z)	/Users/itak/Documents/Research/Walk-IL/dataset/trc/00228_00009.trc
DataRate	CameraRate	NumFrames	NumMarkers	Units	OrigDataRate	OrigDataStartFrame	OrigNumFrames
100.000000	100.000000	4	53	mm	100.000000	192	771
Frame#	Time	RPSI			LPSI			L3			STRN			T10			C7			CLAV			RBAK			LBAK			LSHO			LUPA			LAEL			LAOL			LWTS			LWPS			LFRA			LIFD			LHPS			LHTS			RSHO			RUPA			RAEL			RAOL			RWTS			RWPS			RFRA			RIFD			RHTS			RHPS			RBHD			LFHD			RFHD			LBHD			LHIP			RHIP			RASI			LASI			LKNE			LTHI			LANK			LTIP			LTOE			LMT1			LMT5			LHEE			RKNE			RTHI			RANK			RTIP			RTOE			RMT1			RMT5			RHEE			
		X1	Y1	Z1	X2	Y2	Z2	X3	Y3	Z3	X4	Y4	Z4	X5	Y5	Z5	X6	Y6	Z6	X7	Y7	Z7	X8	Y8	Z8	X9	Y9	Z9	X10	Y10	Z10	X11	Y11	Z11	X12	Y12	Z12	X13	Y13	Z13	X14	Y14	Z14	X15	Y15	Z15	X16	Y16	Z16	X17	Y17	Z17	X18	Y18	Z18	X19	Y19	Z19	X20	Y20	Z20	X21	Y21	Z21	X22	Y22	Z22	X23	Y23	Z23	X24	Y24	Z24	X25	Y25	Z25	X26	Y26	Z26	X27	Y27	Z27	X28	Y28	Z28	X29	Y29	Z29	X30	Y30	Z30	X31	Y31	Z31	X32	Y32	Z32	X33	Y33	Z33	X34	Y34	Z34	X35	Y35	Z35	X36	Y36	Z36	X37	Y37	Z37	X38	Y38	Z38	X39	Y39	Z39	X40	Y40	Z40	X41	Y41	Z41	X42	Y42	Z42	X43	Y43	Z43	X44	Y44	Z44	X45	Y45	Z45	X46	Y46	Z46	X47	Y47	Z47	X48	Y48	Z48	X49	Y49	Z49	X50	Y50	Z50	X51	Y51	Z51	X52	Y52	Z52	X53	Y53	Z53	

193	1.92	492.1341857910156	1046.536499023438	929.7764282226562	403.0662841796875	1046.806884765625	849.3436279296875	439.4675903320312	1129.396118164062	879.5170288085938	615.6574096679688	1289.027954101562	683.552001953125	452.0092163085938	1255.413818359375	881.7006225585938	511.4688720703125	1509.42041015625	816.11572265625	610.2371826171875	1408.453979492188	697.0888061523438	507.2841796875	1376.911499023438	930.4981079101562	410.5204162597656	1476.869506835938	762.2405395507812	425.2295227050781	1471.576904296875	657.3070678710938	335.828857421875	1357.443115234375	638.12255859375	307.2767639160156	1146.411499023438	628.8867797851562	300.1045837402344	1136.392578125	715.2109375	410.7793273925781	914.2091674804688	600.0560302734375	332.8606262207031	893.8206787109375	575.1470947265625	309.9642944335938	1038.022216796875	608.108154296875	415.97607421875	719.1958618164062	593.5128784179688	349.8426208496094	806.1407470703125	565.2606811523438	417.687744140625	813.2819213867188	561.045166015625	674.2738037109375	1456.989379882812	883.38916015625	708.8565063476562	1393.829711914062	944.826171875	716.713623046875	1116.596069335938	1005.100524902344	626.3599243164062	1108.577758789062	971.2197875976562	776.1785888671875	896.2135009765625	886.5669555664062	787.145263671875	885.7767944335938	969.449951171875	742.7354125976562	1047.395141601562	997.674560546875	787.7615966796875	702.3395385742188	878.9789428710938	816.6514892578125	776.257568359375	873.0490112304688	817.2224731445312	778.5771484375	945.586669921875	608.6163330078125	1665.632446289062	800.5135498046875	653.8447875976562	1672.72412109375	577.6052856445312	733.8820190429688	1666.436767578125	637.3073120117188	528.086669921875	1670.901123046875	685.080078125	369.133544921875	980.586669921875	682.404296875	634.4307861328125	999.8955688476562	935.8082885742188	677.5762329101562	1033.536865234375	838.9454345703125	475.6199035644531	1017.395202636719	643.7620239257812	517.7974853515625	524.5446166992188	561.625732421875	455.7641296386719	657.8779907226562	588.1724243164062	486.6307983398438	52.5986213684082	688.150146484375	491.2944946289062	299.6761169433594	622.9720458984375	635.8342895507812	67.26270294189453	531.0396118164062	640.6782836914062	59.18653869628906	610.284423828125	534.8612060546875	49.34383392333984	570.207275390625	501.9870300292969	65.73982238769531	766.60107421875	581.1455078125	507.9141845703125	920.2319946289062	656.8988647460938	771.142822265625	911.9544677734375	453.1036987304688	34.2162971496582	972.987548828125	560.6870727539062	390.8638305664062	913.3414306640625	607.92724609375	41.24723434448242	822.3361206054688	537.0477905273438	39.77533721923828	817.48486328125	558.9668579101562	32.40871810913086	938.0914306640625	369.0684204101562	37.29130172729492	959.3825073242188	
194	1.93	497.2641296386719	1046.115966796875	926.8333740234375	407.4515380859375	1046.145751953125	847.2425537109375	444.3385009765625	1128.68310546875	877.0509643554688	618.7586669921875	1288.206176757812	679.3599243164062	457.0845336914062	1254.670532226562	879.1627807617188	516.169189453125	1508.661987304688	813.12939453125	613.6103515625	1407.622314453125	693.0401000976562	512.9537963867188	1376.040283203125	927.4605102539062	414.6651611328125	1476.23876953125	760.23046875	428.2685852050781	1470.969848632812	655.1287841796875	338.5558166503906	1356.864501953125	636.9252319335938	309.7958068847656	1145.801879882812	628.2916870117188	303.5794982910156	1135.940673828125	714.7446899414062	412.1520690917969	913.1035766601562	599.0509643554688	333.8992309570312	893.0386962890625	574.9130249023438	311.8976135253906	1037.352905273438	607.7599487304688	416.3993835449219	718.0592651367188	592.8104248046875	350.4176330566406	805.2445068359375	565.1090087890625	418.2143859863281	812.0789184570312	560.1388549804688	679.5601196289062	1455.96484375	878.7133178710938	714.6559448242188	1392.679931640625	939.7442626953125	722.9425048828125	1115.412353515625	999.6737670898438	632.2420043945312	1107.480834960938	966.7051391601562	781.09228515625	895.16748046875	880.2380981445312	792.8659057617188	884.6080932617188	962.9970703125	748.8226318359375	1046.2060546875	991.8904418945312	792.6063232421875	701.3209228515625	872.2101440429688	821.4087524414062	775.2373046875	866.1317749023438	822.6968994140625	777.4388427734375	938.6693725585938	613.4249877929688	1664.708618164062	796.76953125	656.2745361328125	1672.063598632812	573.3887939453125	736.9271850585938	1665.5703125	632.236572265625	531.6424560546875	1670.257446289062	682.2230834960938	372.0524291992188	979.5482788085938	680.7872924804688	639.654296875	999.4237060546875	931.5711059570312	681.9304809570312	1032.725952148438	834.3546142578125	478.2140502929688	1016.375305175781	641.121337890625	521.2720336914062	524.2384033203125	558.8607788085938	458.1595153808594	657.0210571289062	585.9507446289062	503.6506958007812	49.46942138671875	677.0504150390625	500.9876403808594	297.7878723144531	616.7938232421875	648.9619750976562	68.71009063720703	516.5855712890625	655.7040405273438	60.18635559082031	595.6690673828125	549.2453002929688	48.57551193237305	557.9976806640625	520.4967041015625	61.79890441894531	755.2731323242188	582.7424926757812	507.9493103027344	918.8182983398438	660.3836059570312	770.5302124023438	908.5089111328125	453.1532287597656	34.52488708496094	972.9944458007812	561.70849609375	391.0509338378906	912.6041259765625	607.8795776367188	41.18597030639648	822.439453125	537.17626953125	40.01841735839844	817.640380859375	558.9889526367188	32.37221527099609	938.155517578125	369.2021789550781	38.05788803100586	959.4942016601562	
195	1.94	502.3094177246094	1045.686645507812	923.7764892578125	411.8000183105469	1045.431030273438	845.013427734375	449.171630859375	1127.916137695312	874.4476318359375	621.8428344726562	1287.3310546875	675.0722045898438	462.1053161621094	1253.875244140625	876.4888305664062	520.828857421875	1507.856811523438	810.020751953125	616.9571533203125	1406.736083984375	688.8944702148438	518.550537109375	1375.119750976562	924.2737426757812	418.7856140136719	1475.55029296875	758.074951171875	431.3173217773438	1470.302368164062	652.8052368164062	341.3019714355469	1356.224853515625	635.5703125	312.3707275390625	1145.13623046875	627.5029907226562	307.0637512207031	1135.424682617188	714.0796508789062	413.5218811035156	911.8865356445312	598.0355834960938	334.9624328613281	892.1965942382812	574.5361938476562	313.8747863769531	1036.6201171875	607.2410278320312	416.6660461425781	716.8068237304688	592.0805053710938	350.9711608886719	804.2977294921875	564.7951049804688	418.73095703125	810.760986328125	559.2448120117188	684.7648315429688	1454.882202148438	873.9378051757812	720.3604125976562	1391.456909179688	934.557861328125	729.02978515625	1114.163208007812	994.1444702148438	637.9844360351562	1106.319702148438	962.1010131835938	785.9090576171875	894.0599365234375	873.8408203125	798.458740234375	883.378173828125	956.4701538085938	754.777587890625	1044.9501953125	986.0133056640625	797.3644409179688	700.241943359375	865.3768310546875	826.0650024414062	774.1595458984375	859.1604614257812	828.0491943359375	776.2417602539062	931.6924438476562	618.1864624023438	1663.73095703125	792.9142456054688	658.6820678710938	1671.365356445312	569.090576171875	739.9320068359375	1664.667724609375	627.0919799804688	535.177734375	1669.564208984375	679.2559814453125	375.0105590820312	978.3840942382812	679.0355834960938	644.7713012695312	998.9511108398438	927.3153686523438	686.2302856445312	1031.89501953125	829.712646484375	480.8314208984375	1015.241027832031	638.38134765625	524.847900390625	523.7586669921875	556.2954711914062	460.6994323730469	655.9946899414062	583.8355712890625	520.4051513671875	46.66884231567383	665.9298095703125	510.6057739257812	295.9735717773438	610.7315673828125	661.5551147460938	70.27809906005859	502.167724609375	670.2210693359375	61.43323135375977	581.0532836914062	563.229248046875	47.97125625610352	545.839599609375	538.772705078125	58.26260375976562	743.848876953125	584.4598999023438	507.9915161132812	917.3060302734375	663.871337890625	769.9331665039062	905.05615234375	453.2109069824219	34.85953903198242	973.01904296875	562.8626708984375	391.2245178222656	911.7658081054688	607.8449096679688	41.14608383178711	822.54296875	537.3050537109375	40.26094055175781	817.794677734375	559.0172729492188	32.33219146728516	938.2138671875	369.3480529785156	38.88510894775391	959.61376953125	
196	1.95	507.2629089355469	1045.244018554688	920.6013793945312	416.1083068847656	1044.662963867188	842.64892578125	453.9584655761719	1127.102783203125	871.7090454101562	624.9096069335938	1286.407470703125	670.6900024414062	467.0642395019531	1253.038208007812	873.681396484375	525.4469604492188	1507.009643554688	806.786865234375	620.2787475585938	1405.801635742188	684.65087890625	524.076904296875	1374.16015625	920.9418334960938	422.8818969726562	1474.810668945312	755.7737426757812	434.3725891113281	1469.582397460938	650.3320922851562	344.0673828125	1355.53173828125	634.0586547851562	315.003662109375	1144.422119140625	626.5136108398438	310.5560607910156	1134.851196289062	713.2066040039062	414.8961486816406	910.5679931640625	597.0074462890625	336.0610046386719	891.3040771484375	574.00537109375	315.9027709960938	1035.835571289062	606.5407104492188	416.780517578125	715.4494018554688	591.3352661132812	351.5065612792969	803.3079223632812	564.3187255859375	419.2478942871094	809.3356323242188	558.3673095703125	689.8932495117188	1453.746704101562	869.06103515625	725.9738159179688	1390.168090820312	929.2666015625	734.9810180664062	1112.856323242188	988.517333984375	643.5938110351562	1105.100463867188	957.4086303710938	790.6265258789062	892.896728515625	867.3776245117188	803.9259033203125	882.09375	949.8727416992188	760.6043701171875	1043.635620117188	980.0474853515625	802.0292358398438	699.1075439453125	858.48583984375	830.6152954101562	773.0277099609375	852.1381225585938	833.2786865234375	774.9916381835938	924.6594848632812	622.8986206054688	1662.706665039062	788.9417114257812	661.06884765625	1670.630859375	564.7049560546875	742.8971557617188	1663.733764648438	621.8681030273438	538.691650390625	1668.82275390625	676.1717529296875	378.0082092285156	977.1034545898438	677.1395874023438	649.775390625	998.4774169921875	923.043701171875	690.4752807617188	1031.05224609375	825.0232543945312	483.4747619628906	1014.003601074219	635.5308837890625	528.5196533203125	523.1076049804688	553.9259643554688	463.3880004882812	654.8032836914062	581.8265991210938	536.8653564453125	44.17877960205078	654.8588256835938	520.1278686523438	294.2310485839844	604.8239135742188	673.551025390625	71.98511505126953	487.8399963378906	684.1865234375	62.91855239868164	566.4857788085938	576.7661743164062	47.52490997314453	533.7975463867188	556.8073120117188	55.12255477905273	732.4046020507812	586.315185546875	508.0316467285156	915.6798095703125	667.373291015625	769.3531494140625	901.5844116210938	453.2796630859375	35.22077941894531	973.0611572265625	564.1574096679688	391.3759155273438	910.8118286132812	607.8245239257812	41.12674331665039	822.6411743164062	537.4263916015625	40.48941040039062	817.9415283203125	559.0538330078125	32.28815078735352	938.2664794921875	369.5021667480469	39.77091217041016	959.740234375	
